<svg version="1.1" id="Layer_1" xmlns="http://www.w3.org/2000/svg" xmlns:xlink="http://www.w3.org/1999/xlink" x="0px" y="0px"
	 width="100%" viewBox="0 0 666 782" enable-background="new 0 0 666 782" xml:space="preserve">
<path fill="#FFFFFF" opacity="1.000000" stroke="none" 
	d="
M347.000000,783.000000 
	C231.333328,783.000000 116.166664,783.000000 1.000000,783.000000 
	C1.000000,522.333313 1.000000,261.666656 1.000000,1.000000 
	C223.000000,1.000000 445.000000,1.000000 667.000000,1.000000 
	C667.000000,261.666656 667.000000,522.333313 667.000000,783.000000 
	C560.500000,783.000000 454.000000,783.000000 347.000000,783.000000 
M138.499985,389.241302 
	C150.857056,389.241302 163.214127,389.241302 175.966064,389.241302 
	C168.868576,403.802124 170.372559,415.774658 179.838364,424.215332 
	C188.271912,431.735504 201.101440,433.268707 210.316193,426.652649 
	C214.678146,423.520813 218.420792,418.712708 220.833954,413.862915 
	C224.895157,405.700958 222.542603,397.407684 217.633591,389.062073 
	C271.007751,389.062073 323.392059,389.062073 375.886871,389.062073 
	C375.886871,269.171600 375.886871,149.810745 375.886871,30.430807 
	C256.349640,30.430807 137.161896,30.430807 18.124378,30.430807 
	C18.124378,150.195694 18.124378,269.558746 18.124378,389.241577 
	C58.217419,389.241577 97.858696,389.241577 138.499985,389.241302 
M375.999817,536.500000 
	C375.999817,491.757782 375.999817,447.015564 375.999817,402.382568 
	C329.579010,402.382568 283.861053,402.382568 238.152740,402.382568 
	C237.668121,429.121918 218.360535,443.179291 201.251526,444.852692 
	C191.296371,445.826385 182.024170,443.630127 173.768494,437.888397 
	C161.379257,429.271881 155.848282,417.005371 155.716110,402.270325 
	C109.606468,402.270325 64.021957,402.270325 18.297504,402.270325 
	C18.297504,521.232361 18.297504,639.924011 18.297504,758.675720 
	C137.619934,758.675720 256.644958,758.675720 375.999817,758.675720 
	C375.999817,684.734619 375.999817,611.117310 375.999817,536.500000 
M605.602051,661.132935 
	C608.826904,650.382690 612.051819,639.632446 615.276672,628.882141 
	C615.607422,628.931335 615.938232,628.980530 616.268982,629.029724 
	C616.268982,660.899658 616.268982,692.769531 616.268982,724.676941 
	C625.018311,724.676941 633.253418,724.676941 641.557007,724.676941 
	C641.557007,682.477783 641.557007,640.607544 641.557007,598.284851 
	C629.588989,598.284851 617.956360,598.460632 606.334412,598.186035 
	C602.453308,598.094421 600.930542,599.326416 599.888123,603.055908 
	C592.369751,629.954468 584.600037,656.782776 576.892883,683.628479 
	C576.394897,685.363220 575.754333,687.056946 574.731079,690.108948 
	C566.836731,662.795471 559.369690,637.098389 551.991699,611.375793 
	C548.242737,598.305542 548.315186,598.284790 534.845398,598.284790 
	C525.910950,598.284790 516.976501,598.284790 507.807617,598.284790 
	C507.807617,640.845276 507.807617,682.734924 507.807617,724.693665 
	C516.229980,724.693665 524.307739,724.693665 532.807556,724.693665 
	C532.807556,692.844116 532.807556,661.301758 532.807556,629.759399 
	C533.138123,629.703674 533.468689,629.647949 533.799255,629.592163 
	C543.030701,661.374573 552.262146,693.156982 561.512634,725.004883 
	C568.861572,725.004883 575.688171,724.826904 582.498352,725.083923 
	C585.652405,725.202942 586.713196,723.988037 587.553467,721.122498 
	C593.353760,701.340637 599.359436,681.619019 605.602051,661.132935 
M439.763855,617.805725 
	C455.458374,617.148987 459.567596,620.181885 463.655457,635.426453 
	C463.693909,635.569885 463.869110,635.676758 464.471405,636.346924 
	C472.215179,635.485901 480.384888,634.577515 488.713226,633.651489 
	C487.619415,619.232483 483.312927,606.776123 469.553772,601.135010 
	C450.057404,593.141663 430.337616,593.426941 412.179993,605.148438 
	C391.290985,618.633057 391.899872,654.402527 415.329376,664.957031 
	C420.611755,667.336670 426.169769,669.134949 431.673187,670.985779 
	C439.225342,673.525696 446.992920,675.488953 454.389465,678.406067 
	C459.858215,680.562866 463.180878,685.012451 462.790680,691.313354 
	C462.408051,697.492310 458.395081,702.369019 451.704681,703.893188 
	C435.937103,707.485046 421.118286,704.238586 417.793182,684.109070 
	C417.746124,683.824097 417.445770,683.580994 416.933777,682.842712 
	C409.196136,683.992981 401.216309,685.179321 392.853485,686.422546 
	C393.458221,699.920654 397.274323,711.853577 408.960480,718.748657 
	C428.741089,730.419678 449.752899,730.140015 470.213989,720.677002 
	C485.616364,713.553528 490.994568,699.999817 489.977081,683.563904 
	C489.048492,668.563599 480.208496,659.626953 467.071381,654.361877 
	C460.609711,651.772217 453.730865,650.243103 447.164795,647.888367 
	C441.562134,645.879150 435.719727,644.043884 430.731781,640.932129 
	C423.451111,636.389832 422.634430,626.588989 428.861938,621.848511 
	C431.609833,619.756775 435.491486,619.154419 439.763855,617.805725 
M430.295074,327.546692 
	C425.247009,326.462738 420.920654,324.290649 417.863922,319.883392 
	C417.247009,318.993927 415.668274,318.014526 414.768616,318.202789 
	C409.492432,319.306793 404.286163,320.745148 398.938690,322.100555 
	C401.609985,330.116028 406.564575,335.209656 413.461914,338.554321 
	C422.131836,342.758636 431.409790,343.688812 440.769623,342.736084 
	C459.186584,340.861389 474.057587,332.156281 473.185547,307.289520 
	C472.345184,283.326172 473.003632,259.310272 473.003632,235.317444 
	C473.003632,233.564316 473.003632,231.811188 473.003632,230.215454 
	C466.138306,230.215454 460.073547,230.215454 453.506409,230.215454 
	C453.506409,234.451294 453.506409,238.240646 453.506409,242.029984 
	C453.962036,241.382645 454.417694,240.735306 454.873322,240.087982 
	C451.468109,237.677139 448.093994,235.220871 444.652191,232.863510 
	C431.503754,223.857849 411.350861,229.071075 402.547791,243.846497 
	C395.424530,255.802383 394.779846,268.871521 397.250916,282.056244 
	C399.726624,295.265839 406.944183,305.184204 420.551178,308.639648 
	C432.886841,311.772217 444.085083,309.862000 452.128967,298.666504 
	C452.242310,298.508789 452.700653,298.598907 453.368591,298.541504 
	C453.368591,302.877808 453.492920,307.176361 453.343292,311.465363 
	C453.007324,321.096985 449.442474,325.422424 440.037933,327.276825 
	C437.149170,327.846466 434.098633,327.595703 430.295074,327.546692 
M563.772278,269.640991 
	C563.558533,267.656433 563.270508,265.676697 563.142334,263.686615 
	C561.446350,237.365448 541.023926,224.866180 516.854980,229.683746 
	C505.245331,231.997879 497.004059,239.070862 492.321350,249.721619 
	C486.049591,263.986572 486.039551,278.648560 492.687225,292.755341 
	C502.635681,313.866638 528.424683,316.364838 546.361816,308.699646 
	C554.907166,305.047852 560.434570,298.513611 562.804504,288.801178 
	C558.130005,288.215363 553.715515,287.737488 549.326782,287.086304 
	C546.285278,286.635010 544.319946,287.306549 542.398865,290.175323 
	C537.814392,297.021484 528.140991,298.920502 519.457520,295.311249 
	C511.765472,292.114105 507.200745,284.218292 508.580017,275.665039 
	C526.829590,275.665039 545.191589,275.665039 563.780701,275.665039 
	C563.780701,273.525513 563.780701,272.034668 563.772278,269.640991 
z"/>
<path fill="#DE9043" opacity="1.000000" stroke="none" 
	d="
M137.999969,389.241455 
	C97.858696,389.241577 58.217419,389.241577 18.124378,389.241577 
	C18.124378,269.558746 18.124378,150.195694 18.124378,30.430807 
	C137.161896,30.430807 256.349640,30.430807 375.886871,30.430807 
	C375.886871,149.810745 375.886871,269.171600 375.886871,389.062073 
	C323.392059,389.062073 271.007751,389.062073 217.633591,389.062073 
	C222.542603,397.407684 224.895157,405.700958 220.833954,413.862915 
	C218.420792,418.712708 214.678146,423.520813 210.316193,426.652649 
	C201.101440,433.268707 188.271912,431.735504 179.838364,424.215332 
	C170.372559,415.774658 168.868576,403.802124 175.966064,389.241302 
	C163.214127,389.241302 150.857056,389.241302 137.999969,389.241455 
M323.970703,322.365997 
	C314.148743,330.771393 300.086609,329.704987 291.957642,320.057037 
	C291.156006,319.105591 289.473999,318.066864 288.445404,318.275543 
	C283.286835,319.321838 278.209747,320.769928 272.916321,322.124878 
	C275.569061,329.727020 280.206421,334.871521 286.909729,338.255859 
	C295.528076,342.607056 304.787109,343.640259 314.155457,342.771179 
	C332.939362,341.028564 348.007629,332.348907 347.176239,307.372070 
	C346.378357,283.402191 347.003876,259.384979 347.003845,235.388565 
	C347.003845,233.630569 347.003815,231.872574 347.003815,230.220352 
	C340.177704,230.220352 334.115173,230.220352 327.556946,230.220352 
	C327.556946,234.467102 327.556946,238.285828 327.556946,242.104553 
	C328.087128,241.384735 328.617340,240.664902 329.147522,239.945084 
	C325.674683,237.602081 322.185150,235.283463 318.731964,232.911819 
	C305.593262,223.888168 285.280365,228.952103 276.639465,243.829605 
	C268.544250,257.767548 268.114655,272.763123 272.908112,287.752319 
	C278.216034,304.350372 294.501923,313.404022 311.266144,308.736877 
	C317.080383,307.118225 322.092773,302.619446 327.449127,299.449310 
	C326.653015,306.352386 329.314026,314.479279 323.970703,322.365997 
M170.859680,221.500626 
	C170.859680,215.397186 170.859680,209.293747 170.859680,203.128525 
	C163.864792,203.128525 157.603363,203.128525 150.773407,203.128525 
	C150.773407,218.133484 150.773407,232.871323 150.773407,247.782257 
	C134.012146,247.782257 117.825737,247.782257 101.051315,247.782257 
	C101.051315,232.659653 101.051315,217.933746 101.051315,203.156891 
	C94.209236,203.156891 87.962456,203.156891 81.545723,203.156891 
	C81.545723,239.180847 81.545723,274.894196 81.545723,310.736542 
	C88.161514,310.736542 94.416504,310.736542 101.234863,310.736542 
	C101.234863,308.691223 101.234833,306.908752 101.234863,305.126282 
	C101.235046,293.295959 101.343124,281.464020 101.168236,269.636292 
	C101.117226,266.186188 102.133759,265.016663 105.678490,265.064270 
	C119.172623,265.245575 132.672974,265.276276 146.165771,265.050659 
	C150.098923,264.984894 150.890945,266.472778 150.837585,270.015717 
	C150.659485,281.843353 150.759750,293.675385 150.781723,305.505646 
	C150.784973,307.254242 150.941223,309.002533 151.023239,310.680725 
	C157.874496,310.680725 164.121796,310.680725 170.859528,310.680725 
	C170.859528,281.072205 170.859528,251.786331 170.859680,221.500626 
M218.886932,275.613220 
	C214.603241,261.634003 210.386337,247.633484 205.940262,233.706100 
	C205.455505,232.187653 203.718597,230.059891 202.444855,229.974731 
	C196.503189,229.577606 190.520218,229.798660 184.078430,229.798660 
	C184.905136,232.359116 185.508865,234.401291 186.220001,236.405350 
	C194.777557,260.521820 203.380249,284.622375 211.904907,308.750458 
	C214.992538,317.489685 207.408356,326.315552 198.335281,324.677582 
	C197.078873,324.450745 195.816513,324.256897 194.276962,324.001282 
	C192.752899,329.172455 191.319565,334.035797 189.768250,339.299438 
	C197.067169,341.467682 203.955276,341.827026 210.842819,340.288788 
	C221.762314,337.850128 227.481613,329.959412 231.031845,320.092773 
	C237.445786,302.267456 243.769470,284.409637 250.130951,266.565460 
	C254.416748,254.543594 258.702667,242.521774 263.235626,229.806778 
	C256.468262,229.806778 250.348602,229.651337 244.251602,229.953461 
	C243.184036,230.006363 241.718872,231.813309 241.280502,233.097885 
	C239.349976,238.755051 237.740631,244.521378 235.992188,250.241211 
	C231.969315,263.401794 227.933243,276.558319 223.571426,290.797333 
	C221.826965,285.246094 220.437088,280.823151 218.886932,275.613220 
z"/>
<path fill="#6150E7" opacity="1.000000" stroke="none" 
	d="
M375.999817,537.000000 
	C375.999817,611.117310 375.999817,684.734619 375.999817,758.675720 
	C256.644958,758.675720 137.619934,758.675720 18.297504,758.675720 
	C18.297504,639.924011 18.297504,521.232361 18.297504,402.270325 
	C64.021957,402.270325 109.606468,402.270325 155.716110,402.270325 
	C155.848282,417.005371 161.379257,429.271881 173.768494,437.888397 
	C182.024170,443.630127 191.296371,445.826385 201.251526,444.852692 
	C218.360535,443.179291 237.668121,429.121918 238.152740,402.382568 
	C283.861053,402.382568 329.579010,402.382568 375.999817,402.382568 
	C375.999817,447.015564 375.999817,491.757782 375.999817,537.000000 
M223.932236,672.497925 
	C230.126633,646.608337 236.321030,620.718689 242.598022,594.483948 
	C234.180344,594.483948 226.906799,594.483948 219.391357,594.483948 
	C213.322861,622.981323 207.296326,651.281616 201.269806,679.581970 
	C194.789139,652.354370 189.323837,625.305664 183.984253,598.232117 
	C183.399048,595.264954 182.321045,593.948364 179.088196,594.148376 
	C174.439575,594.436035 169.750931,594.398865 165.096802,594.160339 
	C162.057449,594.004639 160.668564,594.990234 160.002625,598.042969 
	C156.459427,614.285400 152.733688,630.487976 149.056366,646.701050 
	C146.605576,657.506409 144.130051,668.306213 141.407913,680.238037 
	C140.810272,677.930725 140.452011,676.825623 140.241241,675.692993 
	C135.434372,649.863953 130.676788,624.025574 125.762230,598.217041 
	C125.486176,596.767395 123.993927,594.462524 122.980049,594.414734 
	C115.909225,594.081177 108.815254,594.238464 101.255638,594.238464 
	C110.425079,636.811279 119.441193,678.672180 128.509628,720.776001 
	C135.149841,720.776001 141.312149,720.493774 147.433075,720.875427 
	C151.500717,721.129089 152.834778,719.522339 153.602615,715.794250 
	C157.626831,696.255371 161.870575,676.761536 166.090622,657.263367 
	C167.662674,649.999878 169.377289,642.767212 171.235291,634.605042 
	C171.722595,636.014404 171.916840,636.420654 172.003372,636.848694 
	C177.374268,663.413940 182.791168,689.970276 188.028458,716.561890 
	C188.668213,719.810059 189.900589,721.050049 193.249146,720.843689 
	C197.731842,720.567505 202.285461,720.396912 206.732910,720.879150 
	C211.474243,721.393311 213.014130,719.198669 213.946930,715.062988 
	C217.092529,701.116577 220.509964,687.231506 223.932236,672.497925 
M247.538651,683.993835 
	C244.634308,696.065674 241.729965,708.137512 238.691254,720.767761 
	C246.352432,720.767761 253.331207,720.893433 260.294922,720.625977 
	C261.285583,720.587891 262.755249,718.780701 263.063202,717.555969 
	C264.846588,710.463806 266.506775,703.330688 267.864136,696.146423 
	C268.380890,693.411133 269.519836,692.601868 272.151672,692.623047 
	C284.149200,692.719482 296.149902,692.565186 308.143524,692.802246 
	C309.501099,692.829041 311.584686,694.499695 312.031403,695.841125 
	C314.445923,703.091553 316.355103,710.509216 318.691772,717.787842 
	C319.077118,718.988281 320.687836,720.598511 321.781921,720.637817 
	C328.913300,720.894348 336.058380,720.769653 343.842468,720.769653 
	C331.378052,678.344482 319.070160,636.451965 306.663025,594.221802 
	C295.512634,594.221802 284.532013,594.373413 273.560150,594.130920 
	C270.189880,594.056458 268.927887,595.303589 268.202240,598.347717 
	C261.456329,626.646362 254.611786,654.921448 247.538651,683.993835 
z"/>
<path fill="#6352E7" opacity="1.000000" stroke="none" 
	d="
M605.450562,661.505493 
	C599.359436,681.619019 593.353760,701.340637 587.553467,721.122498 
	C586.713196,723.988037 585.652405,725.202942 582.498352,725.083923 
	C575.688171,724.826904 568.861572,725.004883 561.512634,725.004883 
	C552.262146,693.156982 543.030701,661.374573 533.799255,629.592163 
	C533.468689,629.647949 533.138123,629.703674 532.807556,629.759399 
	C532.807556,661.301758 532.807556,692.844116 532.807556,724.693665 
	C524.307739,724.693665 516.229980,724.693665 507.807617,724.693665 
	C507.807617,682.734924 507.807617,640.845276 507.807617,598.284790 
	C516.976501,598.284790 525.910950,598.284790 534.845398,598.284790 
	C548.315186,598.284790 548.242737,598.305542 551.991699,611.375793 
	C559.369690,637.098389 566.836731,662.795471 574.731079,690.108948 
	C575.754333,687.056946 576.394897,685.363220 576.892883,683.628479 
	C584.600037,656.782776 592.369751,629.954468 599.888123,603.055908 
	C600.930542,599.326416 602.453308,598.094421 606.334412,598.186035 
	C617.956360,598.460632 629.588989,598.284851 641.557007,598.284851 
	C641.557007,640.607544 641.557007,682.477783 641.557007,724.676941 
	C633.253418,724.676941 625.018311,724.676941 616.268982,724.676941 
	C616.268982,692.769531 616.268982,660.899658 616.268982,629.029724 
	C615.938232,628.980530 615.607422,628.931335 615.276672,628.882141 
	C612.051819,639.632446 608.826904,650.382690 605.450562,661.505493 
z"/>
<path fill="#6352E7" opacity="1.000000" stroke="none" 
	d="
M439.311157,617.840820 
	C435.491486,619.154419 431.609833,619.756775 428.861938,621.848511 
	C422.634430,626.588989 423.451111,636.389832 430.731781,640.932129 
	C435.719727,644.043884 441.562134,645.879150 447.164795,647.888367 
	C453.730865,650.243103 460.609711,651.772217 467.071381,654.361877 
	C480.208496,659.626953 489.048492,668.563599 489.977081,683.563904 
	C490.994568,699.999817 485.616364,713.553528 470.213989,720.677002 
	C449.752899,730.140015 428.741089,730.419678 408.960480,718.748657 
	C397.274323,711.853577 393.458221,699.920654 392.853485,686.422546 
	C401.216309,685.179321 409.196136,683.992981 416.933777,682.842712 
	C417.445770,683.580994 417.746124,683.824097 417.793182,684.109070 
	C421.118286,704.238586 435.937103,707.485046 451.704681,703.893188 
	C458.395081,702.369019 462.408051,697.492310 462.790680,691.313354 
	C463.180878,685.012451 459.858215,680.562866 454.389465,678.406067 
	C446.992920,675.488953 439.225342,673.525696 431.673187,670.985779 
	C426.169769,669.134949 420.611755,667.336670 415.329376,664.957031 
	C391.899872,654.402527 391.290985,618.633057 412.179993,605.148438 
	C430.337616,593.426941 450.057404,593.141663 469.553772,601.135010 
	C483.312927,606.776123 487.619415,619.232483 488.713226,633.651489 
	C480.384888,634.577515 472.215179,635.485901 464.471405,636.346924 
	C463.869110,635.676758 463.693909,635.569885 463.655457,635.426453 
	C459.567596,620.181885 455.458374,617.148987 439.311157,617.840820 
z"/>
<path fill="#DE9145" opacity="1.000000" stroke="none" 
	d="
M430.708618,327.633667 
	C434.098633,327.595703 437.149170,327.846466 440.037933,327.276825 
	C449.442474,325.422424 453.007324,321.096985 453.343292,311.465363 
	C453.492920,307.176361 453.368591,302.877808 453.368591,298.541504 
	C452.700653,298.598907 452.242310,298.508789 452.128967,298.666504 
	C444.085083,309.862000 432.886841,311.772217 420.551178,308.639648 
	C406.944183,305.184204 399.726624,295.265839 397.250916,282.056244 
	C394.779846,268.871521 395.424530,255.802383 402.547791,243.846497 
	C411.350861,229.071075 431.503754,223.857849 444.652191,232.863510 
	C448.093994,235.220871 451.468109,237.677139 454.873322,240.087982 
	C454.417694,240.735306 453.962036,241.382645 453.506409,242.029984 
	C453.506409,238.240646 453.506409,234.451294 453.506409,230.215454 
	C460.073547,230.215454 466.138306,230.215454 473.003632,230.215454 
	C473.003632,231.811188 473.003632,233.564316 473.003632,235.317444 
	C473.003632,259.310272 472.345184,283.326172 473.185547,307.289520 
	C474.057587,332.156281 459.186584,340.861389 440.769623,342.736084 
	C431.409790,343.688812 422.131836,342.758636 413.461914,338.554321 
	C406.564575,335.209656 401.609985,330.116028 398.938690,322.100555 
	C404.286163,320.745148 409.492432,319.306793 414.768616,318.202789 
	C415.668274,318.014526 417.247009,318.993927 417.863922,319.883392 
	C420.920654,324.290649 425.247009,326.462738 430.708618,327.633667 
M425.900970,291.835327 
	C436.729431,296.862396 447.211884,293.501984 451.174469,283.069733 
	C454.919983,273.208954 454.752167,263.109985 449.704071,253.615616 
	C444.087036,243.051147 429.480927,241.738785 421.925415,250.999771 
	C413.403625,261.445099 414.171478,284.445038 425.900970,291.835327 
z"/>
<path fill="#DF9246" opacity="1.000000" stroke="none" 
	d="
M563.776489,270.092407 
	C563.780701,272.034668 563.780701,273.525513 563.780701,275.665039 
	C545.191589,275.665039 526.829590,275.665039 508.580017,275.665039 
	C507.200745,284.218292 511.765472,292.114105 519.457520,295.311249 
	C528.140991,298.920502 537.814392,297.021484 542.398865,290.175323 
	C544.319946,287.306549 546.285278,286.635010 549.326782,287.086304 
	C553.715515,287.737488 558.130005,288.215363 562.804504,288.801178 
	C560.434570,298.513611 554.907166,305.047852 546.361816,308.699646 
	C528.424683,316.364838 502.635681,313.866638 492.687225,292.755341 
	C486.039551,278.648560 486.049591,263.986572 492.321350,249.721619 
	C497.004059,239.070862 505.245331,231.997879 516.854980,229.683746 
	C541.023926,224.866180 561.446350,237.365448 563.142334,263.686615 
	C563.270508,265.676697 563.558533,267.656433 563.776489,270.092407 
M508.116150,259.070129 
	C508.737640,260.120880 509.344421,262.077576 509.982788,262.087921 
	C521.397827,262.273102 532.816650,262.222443 544.236389,262.222443 
	C544.074402,253.900864 540.233521,248.055664 533.555664,245.452499 
	C523.082153,241.369720 512.880005,246.563034 508.116150,259.070129 
z"/>
<path fill="#FFFEFC" opacity="1.000000" stroke="none" 
	d="
M324.228058,322.083374 
	C329.314026,314.479279 326.653015,306.352386 327.449127,299.449310 
	C322.092773,302.619446 317.080383,307.118225 311.266144,308.736877 
	C294.501923,313.404022 278.216034,304.350372 272.908112,287.752319 
	C268.114655,272.763123 268.544250,257.767548 276.639465,243.829605 
	C285.280365,228.952103 305.593262,223.888168 318.731964,232.911819 
	C322.185150,235.283463 325.674683,237.602081 329.147522,239.945084 
	C328.617340,240.664902 328.087128,241.384735 327.556946,242.104553 
	C327.556946,238.285828 327.556946,234.467102 327.556946,230.220352 
	C334.115173,230.220352 340.177704,230.220352 347.003815,230.220352 
	C347.003815,231.872574 347.003845,233.630569 347.003845,235.388565 
	C347.003876,259.384979 346.378357,283.402191 347.176239,307.372070 
	C348.007629,332.348907 332.939362,341.028564 314.155457,342.771179 
	C304.787109,343.640259 295.528076,342.607056 286.909729,338.255859 
	C280.206421,334.871521 275.569061,329.727020 272.916321,322.124878 
	C278.209747,320.769928 283.286835,319.321838 288.445404,318.275543 
	C289.473999,318.066864 291.156006,319.105591 291.957642,320.057037 
	C300.086609,329.704987 314.148743,330.771393 324.228058,322.083374 
M291.449677,260.205017 
	C289.473297,267.463623 289.650299,274.701782 292.109375,281.778992 
	C294.251373,287.943604 298.310425,292.527771 304.936066,293.759308 
	C311.449799,294.970001 317.497772,293.779053 322.111328,288.366669 
	C329.707733,279.454987 329.309387,258.715942 321.334747,250.202118 
	C311.575958,239.783524 296.404083,244.519516 291.449677,260.205017 
z"/>
<path fill="#FEFDFB" opacity="1.000000" stroke="none" 
	d="
M170.859604,222.000549 
	C170.859528,251.786331 170.859528,281.072205 170.859528,310.680725 
	C164.121796,310.680725 157.874496,310.680725 151.023239,310.680725 
	C150.941223,309.002533 150.784973,307.254242 150.781723,305.505646 
	C150.759750,293.675385 150.659485,281.843353 150.837585,270.015717 
	C150.890945,266.472778 150.098923,264.984894 146.165771,265.050659 
	C132.672974,265.276276 119.172623,265.245575 105.678490,265.064270 
	C102.133759,265.016663 101.117226,266.186188 101.168236,269.636292 
	C101.343124,281.464020 101.235046,293.295959 101.234863,305.126282 
	C101.234833,306.908752 101.234863,308.691223 101.234863,310.736542 
	C94.416504,310.736542 88.161514,310.736542 81.545723,310.736542 
	C81.545723,274.894196 81.545723,239.180847 81.545723,203.156891 
	C87.962456,203.156891 94.209236,203.156891 101.051315,203.156891 
	C101.051315,217.933746 101.051315,232.659653 101.051315,247.782257 
	C117.825737,247.782257 134.012146,247.782257 150.773407,247.782257 
	C150.773407,232.871323 150.773407,218.133484 150.773407,203.128525 
	C157.603363,203.128525 163.864792,203.128525 170.859680,203.128525 
	C170.859680,209.293747 170.859680,215.397186 170.859604,222.000549 
z"/>
<path fill="#FFFEFC" opacity="1.000000" stroke="none" 
	d="
M218.967072,276.006714 
	C220.437088,280.823151 221.826965,285.246094 223.571426,290.797333 
	C227.933243,276.558319 231.969315,263.401794 235.992188,250.241211 
	C237.740631,244.521378 239.349976,238.755051 241.280502,233.097885 
	C241.718872,231.813309 243.184036,230.006363 244.251602,229.953461 
	C250.348602,229.651337 256.468262,229.806778 263.235626,229.806778 
	C258.702667,242.521774 254.416748,254.543594 250.130951,266.565460 
	C243.769470,284.409637 237.445786,302.267456 231.031845,320.092773 
	C227.481613,329.959412 221.762314,337.850128 210.842819,340.288788 
	C203.955276,341.827026 197.067169,341.467682 189.768250,339.299438 
	C191.319565,334.035797 192.752899,329.172455 194.276962,324.001282 
	C195.816513,324.256897 197.078873,324.450745 198.335281,324.677582 
	C207.408356,326.315552 214.992538,317.489685 211.904907,308.750458 
	C203.380249,284.622375 194.777557,260.521820 186.220001,236.405350 
	C185.508865,234.401291 184.905136,232.359116 184.078430,229.798660 
	C190.520218,229.798660 196.503189,229.577606 202.444855,229.974731 
	C203.718597,230.059891 205.455505,232.187653 205.940262,233.706100 
	C210.386337,247.633484 214.603241,261.634003 218.967072,276.006714 
z"/>
<path fill="#FDFCFF" opacity="1.000000" stroke="none" 
	d="
M223.877838,672.910400 
	C220.509964,687.231506 217.092529,701.116577 213.946930,715.062988 
	C213.014130,719.198669 211.474243,721.393311 206.732910,720.879150 
	C202.285461,720.396912 197.731842,720.567505 193.249146,720.843689 
	C189.900589,721.050049 188.668213,719.810059 188.028458,716.561890 
	C182.791168,689.970276 177.374268,663.413940 172.003372,636.848694 
	C171.916840,636.420654 171.722595,636.014404 171.235291,634.605042 
	C169.377289,642.767212 167.662674,649.999878 166.090622,657.263367 
	C161.870575,676.761536 157.626831,696.255371 153.602615,715.794250 
	C152.834778,719.522339 151.500717,721.129089 147.433075,720.875427 
	C141.312149,720.493774 135.149841,720.776001 128.509628,720.776001 
	C119.441193,678.672180 110.425079,636.811279 101.255638,594.238464 
	C108.815254,594.238464 115.909225,594.081177 122.980049,594.414734 
	C123.993927,594.462524 125.486176,596.767395 125.762230,598.217041 
	C130.676788,624.025574 135.434372,649.863953 140.241241,675.692993 
	C140.452011,676.825623 140.810272,677.930725 141.407913,680.238037 
	C144.130051,668.306213 146.605576,657.506409 149.056366,646.701050 
	C152.733688,630.487976 156.459427,614.285400 160.002625,598.042969 
	C160.668564,594.990234 162.057449,594.004639 165.096802,594.160339 
	C169.750931,594.398865 174.439575,594.436035 179.088196,594.148376 
	C182.321045,593.948364 183.399048,595.264954 183.984253,598.232117 
	C189.323837,625.305664 194.789139,652.354370 201.269806,679.581970 
	C207.296326,651.281616 213.322861,622.981323 219.391357,594.483948 
	C226.906799,594.483948 234.180344,594.483948 242.598022,594.483948 
	C236.321030,620.718689 230.126633,646.608337 223.877838,672.910400 
z"/>
<path fill="#FDFCFF" opacity="1.000000" stroke="none" 
	d="
M247.667267,683.598633 
	C254.611786,654.921448 261.456329,626.646362 268.202240,598.347717 
	C268.927887,595.303589 270.189880,594.056458 273.560150,594.130920 
	C284.532013,594.373413 295.512634,594.221802 306.663025,594.221802 
	C319.070160,636.451965 331.378052,678.344482 343.842468,720.769653 
	C336.058380,720.769653 328.913300,720.894348 321.781921,720.637817 
	C320.687836,720.598511 319.077118,718.988281 318.691772,717.787842 
	C316.355103,710.509216 314.445923,703.091553 312.031403,695.841125 
	C311.584686,694.499695 309.501099,692.829041 308.143524,692.802246 
	C296.149902,692.565186 284.149200,692.719482 272.151672,692.623047 
	C269.519836,692.601868 268.380890,693.411133 267.864136,696.146423 
	C266.506775,703.330688 264.846588,710.463806 263.063202,717.555969 
	C262.755249,718.780701 261.285583,720.587891 260.294922,720.625977 
	C253.331207,720.893433 246.352432,720.767761 238.691254,720.767761 
	C241.729965,708.137512 244.634308,696.065674 247.667267,683.598633 
M281.862823,633.339783 
	C278.998169,646.062012 276.133514,658.784241 273.268188,671.509399 
	C284.150879,671.509399 294.505524,671.509399 305.360870,671.509399 
	C301.489349,656.553711 297.787323,642.100769 293.926605,627.690308 
	C293.675995,626.754822 292.298187,625.657410 291.286835,625.464844 
	C284.651672,624.201843 283.620331,625.052185 281.862823,633.339783 
z"/>
<path fill="#FFFDFC" opacity="1.000000" stroke="none" 
	d="
M425.577698,291.642517 
	C414.171478,284.445038 413.403625,261.445099 421.925415,250.999771 
	C429.480927,241.738785 444.087036,243.051147 449.704071,253.615616 
	C454.752167,263.109985 454.919983,273.208954 451.174469,283.069733 
	C447.211884,293.501984 436.729431,296.862396 425.577698,291.642517 
z"/>
<path fill="#FEFDFC" opacity="1.000000" stroke="none" 
	d="
M508.237274,258.674561 
	C512.880005,246.563034 523.082153,241.369720 533.555664,245.452499 
	C540.233521,248.055664 544.074402,253.900864 544.236389,262.222443 
	C532.816650,262.222443 521.397827,262.273102 509.982788,262.087921 
	C509.344421,262.077576 508.737640,260.120880 508.237274,258.674561 
z"/>
<path fill="#DE9245" opacity="1.000000" stroke="none" 
	d="
M291.589172,259.824402 
	C296.404083,244.519516 311.575958,239.783524 321.334747,250.202118 
	C329.309387,258.715942 329.707733,279.454987 322.111328,288.366669 
	C317.497772,293.779053 311.449799,294.970001 304.936066,293.759308 
	C298.310425,292.527771 294.251373,287.943604 292.109375,281.778992 
	C289.650299,274.701782 289.473297,267.463623 291.589172,259.824402 
z"/>
<path fill="#6453E7" opacity="1.000000" stroke="none" 
	d="
M281.912292,632.925049 
	C283.620331,625.052185 284.651672,624.201843 291.286835,625.464844 
	C292.298187,625.657410 293.675995,626.754822 293.926605,627.690308 
	C297.787323,642.100769 301.489349,656.553711 305.360870,671.509399 
	C294.505524,671.509399 284.150879,671.509399 273.268188,671.509399 
	C276.133514,658.784241 278.998169,646.062012 281.912292,632.925049 
z"/>
</svg>